<svg width="41" height="52" viewBox="0 0 41 52" fill="none" xmlns="http://www.w3.org/2000/svg">
<path d="M6.05377 42.1805C5.17757 42.1805 4.3231 41.8763 3.63517 41.3043C2.77345 40.5801 2.2738 39.5229 2.2738 38.4005V35.5836H4.16379V38.4005C4.16379 38.9653 4.40999 39.494 4.84447 39.856C5.27895 40.2181 5.84378 40.3702 6.40136 40.2688L12.2161 39.2115L11.4703 34.9898L13.3313 34.664L14.2365 39.8126C14.3234 40.3267 13.983 40.8119 13.4761 40.906L6.73446 42.1298C6.50998 42.1732 6.27825 42.1877 6.05377 42.1877V42.1805Z" fill="white"/>
<path d="M25.5764 41.9198L23.0564 39.3998L20.2178 40.1601C19.0809 40.4643 17.8934 40.2326 16.952 39.5084C16.0179 38.7915 15.482 37.7053 15.482 36.525V30.855H17.372V36.525C17.372 37.1116 17.6399 37.6547 18.1034 38.0095C18.5668 38.3643 19.1606 38.4802 19.7327 38.3353L21.514 37.8574L21.3619 37.7053C20.5147 36.8581 20.2685 35.6416 20.7247 34.5264C21.1809 33.4112 22.2164 32.7233 23.4112 32.7233H26.7929V32.7161C27.0391 32.7161 27.2854 32.8174 27.4591 32.9912C27.6402 33.165 27.7343 33.4112 27.7343 33.6574V37.4157C27.7343 37.8429 27.4447 38.2195 27.0319 38.3281L25.1492 38.835L26.9016 40.5874L25.5692 41.9198H25.5764ZM25.8588 34.6133H23.4257C22.7885 34.6205 22.535 35.1057 22.4771 35.2578C22.4192 35.4098 22.2526 35.9312 22.7016 36.3802L23.6212 37.2998L25.8588 36.6988V34.6133Z" fill="white"/>
<path d="M24.5697 44.0777L23.4908 42.5353L30.1094 37.9009C30.3121 37.756 30.5656 37.7053 30.8118 37.7416L34.5121 38.3933C34.9393 38.4729 35.3738 38.3498 35.7069 38.0747C36.04 37.7995 36.2283 37.3867 36.2283 36.9522V34.6205H38.111V36.9522C38.111 37.9443 37.6765 38.8784 36.9162 39.5229C36.1559 40.1602 35.1566 40.4281 34.179 40.2543L30.8625 39.6677L24.5625 44.0777H24.5697Z" fill="white"/>
<path d="M34.3456 32.7306H32.4556V34.6206H34.3456V32.7306Z" fill="white"/>
<path d="M7.93649 33.6864H6.04651V35.5764H7.93649V33.6864Z" fill="white"/>
<path d="M18.6609 15.5469H10.6447C10.0365 15.5469 9.54407 15.0545 9.54407 14.4463V6.43011C9.54407 5.82184 10.0365 5.32943 10.6447 5.32943H18.6609C19.2692 5.32943 19.7616 5.82184 19.7616 6.43011V14.4463C19.7616 15.0545 19.2692 15.5469 18.6609 15.5469ZM11.7454 13.3456H17.5602V7.53079H11.7454V13.3456Z" fill="white"/>
<path d="M12.5492 25.091C9.55855 25.091 6.64753 24.0193 4.35204 22.0424C1.58585 19.66 0 16.1914 0 12.5418V1.10048C0 0.709445 0.209998 0.347379 0.543099 0.151863C0.8762 -0.0436528 1.2962 -0.0508941 1.63654 0.13738L11.1806 5.45975L10.1089 7.3787L2.20136 2.97598V12.5418C2.20136 15.5542 3.51204 18.4145 5.79306 20.3841C8.07407 22.3538 11.0865 23.23 14.0699 22.7882L38.1763 19.2255V2.51978L18.9361 7.48732L18.3857 5.35837L39.0018 0.0360018C39.3276 -0.0508941 39.6824 0.0215191 39.9504 0.231517C40.2183 0.441516 40.3776 0.760134 40.3776 1.10048V20.1669C40.3776 20.71 39.9793 21.1734 39.4362 21.2531L14.3885 24.9606C13.773 25.0548 13.1575 25.0982 12.5492 25.0982V25.091Z" fill="white"/>
<path d="M9.80211 13.7411L3.79822 20.9446L5.48924 22.354L11.4931 15.1505L9.80211 13.7411Z" fill="white"/>
<path d="M18.9502 13.3798L18.3611 15.5009L38.979 21.2265L39.568 19.1054L18.9502 13.3798Z" fill="white"/>
<path d="M38.1184 51.7969H32.7019C32.4701 51.7969 32.2819 51.6087 32.2819 51.3769V46.7859H33.1146V50.9642H37.6984V50.2328L34.2515 49.3132C34.0922 49.2697 33.9763 49.1394 33.9474 48.9801C33.9184 48.8208 33.9836 48.6614 34.1212 48.5673L36.6846 46.7715L37.1625 47.4521L35.3305 48.7339L38.2197 49.5014C38.4008 49.5521 38.5311 49.7114 38.5311 49.907V51.3769C38.5311 51.6087 38.3428 51.7969 38.1111 51.7969H38.1184Z" fill="white"/>
<path d="M21.0288 51.7969H15.6123C15.3805 51.7969 15.1923 51.6087 15.1923 51.3769V46.7859H16.025V50.9642H20.6088V50.2328L17.1619 49.3132C17.0026 49.2697 16.8867 49.1394 16.8578 48.9801C16.8288 48.8208 16.894 48.6614 17.0316 48.5673L19.595 46.7715L20.0729 47.4521L18.2409 48.7339L21.1301 49.5014C21.3112 49.5521 21.4415 49.7114 21.4415 49.907V51.3769C21.4415 51.6087 21.2532 51.7969 21.0215 51.7969H21.0288Z" fill="white"/>
<path d="M18.3721 46.7832L16.9379 48.6583L17.5994 49.1642L19.0335 47.2891L18.3721 46.7832Z" fill="white"/>
<path d="M24.7798 51.797H23.1143C22.8826 51.797 22.6943 51.6087 22.6943 51.377V50.1025C22.6943 49.9142 22.8174 49.7477 23.0057 49.697L25.924 48.9149L26.1412 49.7187L23.5343 50.4211V50.957H24.7871V51.7897L24.7798 51.797Z" fill="white"/>
<path d="M30.6163 51.797H26.0325C25.8008 51.797 25.6125 51.6087 25.6125 51.377V48.0604H26.4453V50.957H27.6981V49.1466C27.6981 48.9439 27.8429 48.7701 28.0384 48.7339L29.5591 48.4587C29.9211 48.3935 30.2977 48.4949 30.5801 48.7339C30.8625 48.9728 31.0291 49.3204 31.0291 49.6897V51.3625C31.0291 51.5942 30.8408 51.7825 30.6091 51.7825L30.6163 51.797ZM28.5308 50.9642H30.1963V49.7042C30.1963 49.5377 30.1022 49.429 30.0442 49.3856C29.9863 49.3421 29.8704 49.2625 29.7039 49.2915L28.5308 49.5015V50.9642Z" fill="white"/>
<path d="M12.2668 51.797H11.0285C10.7968 51.797 10.6085 51.6087 10.6085 51.377V49.2842H10.4564L9.73955 50.8266C9.46438 51.4132 8.8706 51.7897 8.22612 51.7897H7.27026V50.957H8.22612C8.55198 50.957 8.84887 50.7687 8.98646 50.4718L9.81921 48.6904C9.88438 48.5456 10.0364 48.4515 10.1958 48.4515H11.0285C11.2602 48.4515 11.4485 48.6397 11.4485 48.8715V50.9642H12.274C12.7375 50.9642 13.114 50.5877 13.114 50.1242V46.786H13.9468V50.1242C13.9468 51.0511 13.1937 51.797 12.274 51.797H12.2668Z" fill="white"/>
<path d="M6.02472 51.7969H3.52647C2.60682 51.7969 1.86096 51.0511 1.86096 50.1314V49.2914H2.69371V50.1314C2.69371 50.5876 3.07026 50.9642 3.52647 50.9642H5.61197V50.5949L4.38094 50.0228C4.23612 49.9576 4.14198 49.8056 4.14198 49.6463V49.2914C4.14198 48.6035 4.69956 48.0459 5.38749 48.0459H6.86472V48.8787H5.38749C5.16301 48.8787 4.97473 49.067 4.97473 49.2914V49.3783L6.20576 49.9504C6.35058 50.0156 6.44472 50.1676 6.44472 50.327V51.3769C6.44472 51.6087 6.25644 51.7969 6.02472 51.7969Z" fill="white"/>
<path d="M29.7764 47.0756H28.9436V47.9083H29.7764V47.0756Z" fill="white"/>
</svg>
