<svg xmlns="http://www.w3.org/2000/svg" width="1024" height="1024" viewBox="0 0 33 33" shape-rendering="crispEdges"><path fill="#ffffff" d="M0 0h33v33H0z"/><path stroke="#2a2a2a" d="M2 2.5h7m2 0h1m1 0h2m5 0h2m2 0h7M2 3.5h1m5 0h1m1 0h1m1 0h4m2 0h1m2 0h1m2 0h1m5 0h1M2 4.5h1m1 0h3m1 0h1m1 0h1m6 0h4m3 0h1m1 0h3m1 0h1M2 5.5h1m1 0h3m1 0h1m1 0h1m2 0h3m1 0h1m1 0h3m2 0h1m1 0h3m1 0h1M2 6.5h1m1 0h3m1 0h1m1 0h1m1 0h1m5 0h3m3 0h1m1 0h3m1 0h1M2 7.5h1m5 0h1m1 0h1m4 0h1m6 0h1m1 0h1m5 0h1M2 8.5h7m1 0h1m1 0h1m1 0h1m1 0h1m1 0h1m1 0h1m1 0h1m1 0h7M14 9.5h1m5 0h1M4 10.5h1m2 0h4m1 0h1m2 0h1m1 0h5m1 0h1m1 0h5M2 11.5h2m1 0h3m1 0h2m4 0h6m3 0h2m3 0h2M3 12.5h1m1 0h1m1 0h2m1 0h3m3 0h1m2 0h3m1 0h1m1 0h1m4 0h1M3 13.5h1m2 0h2m3 0h3m1 0h2m1 0h2m4 0h4M3 14.5h1m1 0h1m2 0h1m1 0h2m5 0h2m2 0h4m2 0h1m1 0h1M3 15.5h1m1 0h1m1 0h1m1 0h2m2 0h1m3 0h1m1 0h1m1 0h2m1 0h1m2 0h1m2 0h1M2 16.5h3m3 0h1m1 0h1m2 0h1m1 0h3m1 0h5m3 0h2m1 0h1M4 17.5h1m1 0h2m1 0h1m1 0h1m1 0h1m1 0h1m3 0h1m1 0h3m3 0h1m2 0h1M3 18.5h1m1 0h4m2 0h1m4 0h2m1 0h1m2 0h1m1 0h2M3 19.5h3m8 0h2m2 0h1m3 0h3m5 0h1M2 20.5h2m1 0h2m1 0h5m1 0h2m1 0h1m1 0h1m2 0h1m3 0h1m1 0h1m1 0h1M4 21.5h1m1 0h1m2 0h1m4 0h2m2 0h8m1 0h1M2 22.5h5m1 0h1m1 0h1m1 0h1m2 0h1m3 0h1m2 0h6m2 0h1M10 23.5h1m3 0h2m6 0h1m3 0h2m2 0h1M2 24.5h7m1 0h1m1 0h1m2 0h6m1 0h1m1 0h1m1 0h3m1 0h1M2 25.5h1m5 0h1m1 0h2m1 0h1m1 0h3m1 0h1m1 0h2m3 0h2m1 0h1M2 26.5h1m1 0h3m1 0h1m2 0h1m2 0h1m2 0h1m1 0h8m2 0h2M2 27.5h1m1 0h3m1 0h1m3 0h1m1 0h3m4 0h2m2 0h3m1 0h1M2 28.5h1m1 0h3m1 0h1m1 0h1m1 0h2m1 0h1m1 0h1m5 0h1m2 0h2m1 0h2M2 29.5h1m5 0h1m3 0h1m1 0h1m1 0h5m6 0h1M2 30.5h7m3 0h1m4 0h2m2 0h3m1 0h3m2 0h1"/><circle cx="16.5" cy="16.5" r="4.686" fill="#ffffff"/><circle cx="16.5" cy="16.5" r="4.29" fill="#2a2a2a"/><g transform="translate(13.5828 14.650068292682928) scale(0.14230243902439024)">
<path d="M18.6609 15.5469H10.6447C10.0365 15.5469 9.54407 15.0545 9.54407 14.4463V6.43011C9.54407 5.82184 10.0365 5.32943 10.6447 5.32943H18.6609C19.2692 5.32943 19.7616 5.82184 19.7616 6.43011V14.4463C19.7616 15.0545 19.2692 15.5469 18.6609 15.5469ZM11.7454 13.3456H17.5602V7.53079H11.7454V13.3456Z" fill="#ffffff"/>
<path d="M12.5492 25.091C9.55855 25.091 6.64753 24.0193 4.35204 22.0424C1.58585 19.66 0 16.1914 0 12.5418V1.10048C0 0.709445 0.209998 0.347379 0.543099 0.151863C0.8762 -0.0436528 1.2962 -0.0508941 1.63654 0.13738L11.1806 5.45975L10.1089 7.3787L2.20136 2.97598V12.5418C2.20136 15.5542 3.51204 18.4145 5.79306 20.3841C8.07407 22.3538 11.0865 23.23 14.0699 22.7882L38.1763 19.2255V2.51978L18.9361 7.48732L18.3857 5.35837L39.0018 0.0360018C39.3276 -0.0508941 39.6824 0.0215191 39.9504 0.231517C40.2183 0.441516 40.3776 0.760134 40.3776 1.10048V20.1669C40.3776 20.71 39.9793 21.1734 39.4362 21.2531L14.3885 24.9606C13.773 25.0548 13.1575 25.0982 12.5492 25.0982V25.091Z" fill="#ffffff"/>
<path d="M9.80211 13.7411L3.79822 20.9446L5.48924 22.354L11.4931 15.1505L9.80211 13.7411Z" fill="#ffffff"/>
<path d="M18.9502 13.3798L18.3611 15.5009L38.979 21.2265L39.568 19.1054L18.9502 13.3798Z" fill="#ffffff"/>
</g></svg>
